<svg version="1.1" xmlns="http://www.w3.org/2000/svg" xmlns:xlink="http://www.w3.org/1999/xlink" viewBox="0 0 172 172"><g transform=""><g fill="none" fill-rule="nonzero" stroke="none" stroke-width="1" stroke-linecap="butt" stroke-linejoin="miter" stroke-miterlimit="10" stroke-dasharray="" stroke-dashoffset="0" font-family="none" font-weight="none" font-size="none" text-anchor="none" style="mix-blend-mode: normal"><path d="M0,172v-172h172v172z" fill="none"></path><g><path d="M118.895,145.125c-0.215,-0.43 -0.645,-0.645 -1.075,-0.645c-0.215,-0.215 -0.645,-0.215 -0.645,-0.43c0,-0.86 0,-1.29 -0.43,-1.935l-0.215,-0.43l-7.74,-20.425l-0.215,-0.215c-0.215,-0.215 -2.365,-2.365 -2.365,-7.095v-17.2c0,-0.645 0.43,-1.075 1.075,-1.075c0.86,0 1.935,-0.86 10.75,-9.245c2.58,-2.58 5.805,-5.59 7.525,-7.095v34.615c0,6.02 1.075,8.385 1.935,10.32l10.535,18.705h8.17c0.645,0 1.075,0.43 1.075,1.075c0,0.645 -0.43,1.075 -1.075,1.075z" fill="#bae0bd"></path><path d="M127.71,79.335v0v0M124.7,81.915v32.035c0,6.45 1.075,8.815 2.15,10.75l10.105,18.275l0.645,1.075h1.29h7.31h-0.645h-16.555h-9.675c-0.43,-0.215 -0.645,-0.43 -1.075,-0.645v0c0,-0.645 -0.215,-1.075 -0.43,-1.935l-0.215,-0.215l-7.525,-20.21l-0.215,-0.43l-0.43,-0.43c-0.215,-0.215 -1.935,-1.935 -1.935,-6.235v-17.2c1.29,0 1.505,0 11.395,-9.46c1.935,-1.72 4.085,-3.87 5.805,-5.375M126.85,77.4c-1.075,0 -18.06,17.2 -19.35,17.2c-1.29,0 -2.15,0.86 -2.15,2.15v17.2c0,4.73 1.935,7.095 2.58,7.74l7.525,20.21c0.43,1.075 0.43,1.075 0.43,2.15c0,1.29 2.15,1.29 2.15,2.15h10.75h16.555h0.86c1.29,0 2.15,-0.86 2.15,-2.15c0,-1.29 -0.86,-2.15 -2.15,-2.15h-7.31l-10.105,-18.275c-1.075,-1.72 -1.935,-3.87 -1.935,-9.675v-36.55v0z" fill="#5e9c76"></path><path d="M30.1,145.125c-12.47,0 -20.425,-4.73 -20.425,-11.825c0,-3.655 2.15,-8.815 7.955,-12.04l1.29,-0.645l-0.86,-1.075c-5.805,-6.665 -8.385,-14.405 -8.385,-24.94c0,-23.435 22.145,-41.925 50.525,-41.925c26.875,0 34.83,-7.955 41.065,-14.19c4.085,-4.085 7.31,-7.31 14.835,-7.31h8.6c19.35,0.215 37.625,10.105 37.625,20.425c0,4.515 -15.265,13.975 -29.455,20.425l-0.645,0.215v9.46c0,33.97 -54.395,50.525 -55.04,50.525l-3.44,0.645l3.225,1.29c3.87,1.505 14.405,7.095 16.34,10.75l-63.21,0.215z" fill="#bae0bd"></path><path d="M124.7,32.25c18.705,0.215 36.55,9.46 36.55,19.35c0,3.44 -13.115,12.255 -28.81,19.565l-1.29,0.645v1.29v8.6c0,33.325 -53.535,49.45 -54.18,49.45l-7.095,1.29l6.665,2.795c4.945,2.15 11.61,6.02 14.62,8.815h-61.06c-11.825,0 -19.35,-4.3 -19.35,-10.75c0,-3.44 1.935,-8.17 7.525,-10.965l2.365,-1.29l-1.72,-2.15c-5.59,-6.45 -8.17,-13.975 -8.17,-24.295c0,-23.005 21.715,-40.85 49.45,-40.85c27.305,0 35.475,-7.955 41.925,-14.62c4.085,-4.085 6.88,-6.88 13.975,-6.88h8.6M124.7,30.1c0,0 -8.17,0 -8.6,0c-19.78,0 -11.825,21.5 -55.9,21.5c-27.95,0 -51.6,18.275 -51.6,43c0,10.105 2.15,18.275 8.6,25.8c-6.02,3.225 -8.6,8.385 -8.6,12.9c0,8.17 8.815,12.9 21.5,12.9c15.05,0 45.795,0 64.5,0c0,-5.16 -16.125,-12.47 -17.2,-12.9c2.795,-0.43 55.9,-17.415 55.9,-51.6v-8.6c10.105,-4.73 30.1,-15.48 30.1,-21.5c0,-11.395 -19.135,-21.285 -38.7,-21.5z" fill="#5e9c76"></path><path d="M77.4,133.3h-38.7v-1.075c0,-1.29 1.29,-1.505 4.73,-2.795c8.385,-2.365 25.37,-7.525 25.37,-23.005c0,-9.245 -13.33,-18.705 -29.24,-20.425c-0.645,0 -1.075,-0.645 -0.86,-1.29c0,-0.645 0.645,-1.075 1.29,-0.86c17.2,1.935 30.96,12.04 30.96,22.575c0,16.125 -16.77,22.145 -25.37,24.725h31.82c0.645,0 1.075,0.43 1.075,1.075c0,0.645 -0.43,1.075 -1.075,1.075z" fill="#5e9c76"></path><path d="M97.825,86h6.02v23.865h-6.02z" fill="#bae0bd"></path><path d="M118.25,26.875c-7.71818,0 -13.975,6.25682 -13.975,13.975c0,7.71818 6.25682,13.975 13.975,13.975c7.71818,0 13.975,-6.25682 13.975,-13.975c0,-7.71818 -6.25682,-13.975 -13.975,-13.975z" fill="#ffffff"></path><path d="M118.25,27.95c7.095,0 12.9,5.805 12.9,12.9c0,7.095 -5.805,12.9 -12.9,12.9c-7.095,0 -12.9,-5.805 -12.9,-12.9c0,-7.095 5.805,-12.9 12.9,-12.9M118.25,25.8c-8.385,0 -15.05,6.665 -15.05,15.05c0,8.385 6.665,15.05 15.05,15.05c8.385,0 15.05,-6.665 15.05,-15.05c0,-8.385 -6.665,-15.05 -15.05,-15.05z" fill="#788b9c"></path><path d="M122.55,34.4c-3.56224,0 -6.45,2.88776 -6.45,6.45c0,3.56224 2.88776,6.45 6.45,6.45c3.56224,0 6.45,-2.88776 6.45,-6.45c0,-3.56224 -2.88776,-6.45 -6.45,-6.45z" fill="#36404d"></path><g><path d="M112.875,99.975v13.975c0,6.02 0.86,8.6 2.15,10.75l11.395,20.425h-10.535c-0.43,0 -18.06,-24.725 -18.06,-24.725c-1.075,-1.075 -2.15,-3.225 -2.15,-6.45v-18.275" fill="#bae0bd"></path><path d="M128.355,146.2h-12.255c-0.645,0 -1.075,0 -18.92,-25.155c-0.86,-0.645 -2.58,-2.795 -2.58,-7.095v-18.275c0,-0.645 0.43,-1.075 1.075,-1.075c0.645,0 1.075,0.43 1.075,1.075v18.275c0,3.655 1.505,5.16 1.935,5.59c6.45,9.03 16.125,22.36 17.845,24.51h8.17l-10.535,-18.92c-1.505,-2.365 -2.365,-5.16 -2.365,-11.18v-13.975c0,-0.645 0.43,-1.075 1.075,-1.075c0.645,0 1.075,0.43 1.075,1.075v13.975c0,5.59 0.86,7.955 1.935,10.32z" fill="#5e9c76"></path><path d="M133.3,141.9h-8.6v2.15h-10.965c0.645,0.86 1.29,2.15 2.365,2.15h17.2c1.075,0 2.15,-0.86 2.15,-2.15c0,-1.29 -1.075,-2.15 -2.15,-2.15z" fill="#5e9c76"></path></g></g><path d="" fill="none"></path><path d="" fill="none"></path></g></g></svg>