<svg version="1.1" xmlns="http://www.w3.org/2000/svg" xmlns:xlink="http://www.w3.org/1999/xlink" viewBox="0 0 172 172"><g transform=""><g fill="none" fill-rule="nonzero" stroke="none" stroke-width="none" stroke-linecap="none" stroke-linejoin="miter" stroke-miterlimit="10" stroke-dasharray="" stroke-dashoffset="0" font-family="none" font-weight="none" font-size="none" text-anchor="none" style="mix-blend-mode: normal"><path d="M0,172v-172h172v172z" fill="none" stroke="none" stroke-width="1" stroke-linecap="butt"></path><g><path d="M69.875,147.8125c0,0 0,-102.26206 0,-104.8125c-3.37013,-2.44562 -5.375,-6.26725 -5.375,-10.75c0,-7.42288 6.01462,-13.4375 13.4375,-13.4375h-48.375c-7.42288,0 -13.4375,6.01462 -13.4375,13.4375c0,4.48275 2.00488,8.30438 5.375,10.75c0,2.55044 0,104.8125 0,104.8125c0,2.96969 2.40531,5.375 5.375,5.375h48.375c-2.96969,0 -5.375,-2.40531 -5.375,-5.375z" fill="#f9dd8f" stroke="none" stroke-width="1" stroke-linecap="butt"></path><path d="M21.5,137.0625c0,6.59244 0,10.75 0,10.75c0,2.96969 2.40531,5.375 5.375,5.375h48.375c-2.96969,0 -5.375,-2.40531 -5.375,-5.375c0,0 0,-4.15756 0,-10.75z" fill="#efc88e" stroke="none" stroke-width="1" stroke-linecap="butt"></path><path d="M77.9375,18.8125h-48.375c-7.42288,0 -13.4375,6.01462 -13.4375,13.4375c0,4.48275 2.00488,8.30438 5.375,10.75h48.375c-3.37013,-2.44562 -5.375,-6.26725 -5.375,-10.75c0,-7.42288 6.01462,-13.4375 13.4375,-13.4375z" fill="#c4939c" stroke="none" stroke-width="1" stroke-linecap="butt"></path><path d="M161.25,32.25c0,-7.42288 -6.01462,-13.4375 -13.4375,-13.4375h-69.875c-7.42288,0 -13.4375,6.01462 -13.4375,13.4375c0,4.48275 2.00487,8.31513 5.375,10.75c0,2.55044 0,104.8125 0,104.8125c0,2.96969 2.40531,5.375 5.375,5.375h75.25c2.96969,0 5.375,-2.40531 5.375,-5.375c0,0 0,-102.28356 0,-104.8125c3.39163,-2.43487 5.375,-6.2565 5.375,-10.75z" fill="#f9e3ae" stroke="none" stroke-width="1" stroke-linecap="butt"></path><path d="M77.9375,83.3125c-4.4505,0 -8.0625,3.612 -8.0625,8.0625c0,4.4505 3.612,8.0625 8.0625,8.0625c4.4505,0 8.0625,-3.612 8.0625,-8.0625c0,-4.4505 -3.612,-8.0625 -8.0625,-8.0625z" fill="#c4939c" stroke="none" stroke-width="1" stroke-linecap="butt"></path><path d="M147.8125,83.3125c-4.4505,0 -8.0625,3.612 -8.0625,8.0625c0,4.4505 3.612,8.0625 8.0625,8.0625c4.4505,0 8.0625,-3.612 8.0625,-8.0625c0,-4.4505 -3.612,-8.0625 -8.0625,-8.0625z" fill="#c4939c" stroke="none" stroke-width="1" stroke-linecap="butt"></path><path d="M147.8125,16.125h-118.25c-8.89294,0 -16.125,7.23206 -16.125,16.125c0,4.74612 1.94306,9.04881 5.375,12.04v103.5225c0,4.43975 3.62275,8.0625 8.0625,8.0625h123.625c4.43975,0 8.0625,-3.62275 8.0625,-8.0625v-103.51175c3.43194,-2.98044 5.375,-7.29656 5.375,-12.05075c0,-8.89294 -7.23206,-16.125 -16.125,-16.125zM24.1875,147.8125v-102.125h26.875c1.48081,0 2.6875,-1.20669 2.6875,-2.6875c0,-1.48081 -1.20669,-2.6875 -2.6875,-2.6875h-28.54394c-2.36231,-1.98337 -3.70606,-4.79719 -3.70606,-8.0625c0,-5.93131 4.81869,-10.75 10.75,-10.75h36.38606c-2.56119,2.85413 -4.13606,6.61394 -4.13606,10.75c0,4.74612 1.94306,9.04881 5.375,12.04v103.5225c0,0.946 0.18812,1.849 0.4945,2.6875h-40.807c-1.48081,0 -2.6875,-1.20669 -2.6875,-2.6875zM154.30013,40.81775l-1.11263,0.80625v106.1885c0,1.48081 -1.20669,2.6875 -2.6875,2.6875h-75.25c-1.48081,0 -2.6875,-1.20669 -2.6875,-2.6875v-106.1885l-1.11263,-0.79819c-2.752,-1.99412 -4.26237,-5.03906 -4.26237,-8.57581c0,-5.93131 4.81869,-10.75 10.75,-10.75h69.875c5.93131,0 10.75,4.81869 10.75,10.75c0,3.5475 -1.51306,6.59244 -4.26237,8.56775z" fill="#8d6c9f" stroke="none" stroke-width="1" stroke-linecap="butt"></path><path d="M59.125,131.6875c-1.48081,0 -2.6875,1.20669 -2.6875,2.6875v5.375c0,1.48081 1.20669,2.6875 2.6875,2.6875c1.48081,0 2.6875,-1.20669 2.6875,-2.6875v-5.375c0,-1.48081 -1.20669,-2.6875 -2.6875,-2.6875zM45.6875,131.6875c-1.48081,0 -2.6875,1.20669 -2.6875,2.6875v5.375c0,1.48081 1.20669,2.6875 2.6875,2.6875c1.48081,0 2.6875,-1.20669 2.6875,-2.6875v-5.375c0,-1.48081 -1.20669,-2.6875 -2.6875,-2.6875zM32.25,131.6875c-1.48081,0 -2.6875,1.20669 -2.6875,2.6875v5.375c0,1.48081 1.20669,2.6875 2.6875,2.6875c1.48081,0 2.6875,-1.20669 2.6875,-2.6875v-5.375c0,-1.48081 -1.20669,-2.6875 -2.6875,-2.6875z" fill="#8d6c9f" stroke="none" stroke-width="1" stroke-linecap="butt"></path><circle cx="35" cy="24" transform="scale(2.6875,2.6875)" r="4" fill="#8d6c9f" stroke="none" stroke-width="1" stroke-linecap="butt"></circle><circle cx="35" cy="22" transform="scale(2.6875,2.6875)" r="2" fill="#faefde" stroke="none" stroke-width="1" stroke-linecap="butt"></circle><circle cx="49" cy="24" transform="scale(2.6875,2.6875)" r="4" fill="#8d6c9f" stroke="none" stroke-width="1" stroke-linecap="butt"></circle><circle cx="49" cy="22" transform="scale(2.6875,2.6875)" r="2" fill="#faefde" stroke="none" stroke-width="1" stroke-linecap="butt"></circle><path d="M129,96.75c0,7.42019 -7.21863,13.4375 -16.125,13.4375c-8.90637,0 -16.125,-6.01731 -16.125,-13.4375" fill="none" stroke="#8d6c9f" stroke-width="5.375" stroke-linecap="round"></path></g><path d="" fill="none" stroke="none" stroke-width="1" stroke-linecap="butt"></path></g></g></svg>