<svg version="1.1" xmlns="http://www.w3.org/2000/svg" xmlns:xlink="http://www.w3.org/1999/xlink" viewBox="0 0 172 172"><defs><linearGradient x1="86" y1="13.25744" x2="86" y2="153.42938" gradientUnits="userSpaceOnUse" id="color-1"><stop offset="0" stop-color="#e090f0"></stop><stop offset="1" stop-color="#05bdf5"></stop></linearGradient><linearGradient x1="86" y1="18.8125" x2="86" y2="29.61625" gradientUnits="userSpaceOnUse" id="color-2"><stop offset="0" stop-color="#fcf3fd"></stop><stop offset="1" stop-color="#6edafc"></stop></linearGradient><linearGradient x1="153.1875" y1="137.0625" x2="153.1875" y2="147.86625" gradientUnits="userSpaceOnUse" id="color-3"><stop offset="0" stop-color="#fcf3fd"></stop><stop offset="1" stop-color="#6edafc"></stop></linearGradient><linearGradient x1="18.8125" y1="137.0625" x2="18.8125" y2="147.86625" gradientUnits="userSpaceOnUse" id="color-4"><stop offset="0" stop-color="#fcf3fd"></stop><stop offset="1" stop-color="#6edafc"></stop></linearGradient></defs><g fill="none" fill-rule="nonzero" stroke="none" stroke-width="1" stroke-linecap="butt" stroke-linejoin="miter" stroke-miterlimit="10" stroke-dasharray="" stroke-dashoffset="0" font-family="none" font-weight="none" font-size="none" text-anchor="none" style="mix-blend-mode: normal"><path d="M0,172v-172h172v172z" fill="none"></path><g id="original-icon"><path d="M153.1875,131.6875c-0.65306,0 -1.28731,0.08063 -1.90812,0.1935l-57.75437,-100.03412c1.98606,-1.95381 3.225,-4.66281 3.225,-7.65937c0,-5.92862 -4.82137,-10.75 -10.75,-10.75c-5.92862,0 -10.75,4.82138 -10.75,10.75c0,2.99656 1.23894,5.70556 3.225,7.65937l-57.75437,100.03412c-0.62081,-0.11287 -1.25506,-0.1935 -1.90812,-0.1935c-5.92863,0 -10.75,4.82137 -10.75,10.75c0,5.92862 4.82137,10.75 10.75,10.75c4.99338,0 9.16706,-3.44 10.36837,-8.0625h113.63825c1.20131,4.6225 5.375,8.0625 10.36838,8.0625c5.92863,0 10.75,-4.82137 10.75,-10.75c0,-5.92863 -4.82137,-10.75 -10.75,-10.75zM83.14587,34.50481c0.91644,0.25263 1.85975,0.43269 2.85412,0.43269c0.99438,0 1.93769,-0.18006 2.85413,-0.43269l57.54475,99.66862c-1.72806,1.42169 -2.99925,3.34863 -3.57706,5.57656h-113.64094c-0.5805,-2.22794 -1.85169,-4.15488 -3.57706,-5.57656z" fill="url(#color-1)"></path><path d="M86,18.8125c-2.96853,0 -5.375,2.40647 -5.375,5.375c0,2.96853 2.40647,5.375 5.375,5.375c2.96853,0 5.375,-2.40647 5.375,-5.375c0,-2.96853 -2.40647,-5.375 -5.375,-5.375z" fill="url(#color-2)"></path><path d="M153.1875,137.0625c-2.96853,0 -5.375,2.40647 -5.375,5.375c0,2.96853 2.40647,5.375 5.375,5.375c2.96853,0 5.375,-2.40647 5.375,-5.375c0,-2.96853 -2.40647,-5.375 -5.375,-5.375z" fill="url(#color-3)"></path><path d="M18.8125,137.0625c-2.96853,0 -5.375,2.40647 -5.375,5.375c0,2.96853 2.40647,5.375 5.375,5.375c2.96853,0 5.375,-2.40647 5.375,-5.375c0,-2.96853 -2.40647,-5.375 -5.375,-5.375z" fill="url(#color-4)"></path></g><path d="" fill="none"></path></g></svg>